<?xml version="1.0" encoding="UTF-8" standalone="no"?>
<!DOCTYPE svg PUBLIC "-//W3C//DTD SVG 1.1//EN"
 "http://www.w3.org/Graphics/SVG/1.1/DTD/svg11.dtd">
<!-- Generated by graphviz version 2.43.0 (0)
 -->
<!-- Title: G Pages: 1 -->
<svg width="550pt" height="836pt"
 viewBox="0.00 0.00 549.59 836.00" xmlns="http://www.w3.org/2000/svg" xmlns:xlink="http://www.w3.org/1999/xlink">
<g id="graph0" class="graph" transform="scale(1 1) rotate(0) translate(4 832)">
<title>G</title>
<polygon fill="#ffffff" stroke="transparent" points="-4,4 -4,-832 545.59,-832 545.59,4 -4,4"/>
<!-- (3, 3, 1, 0) -->
<g id="node1" class="node">
<title>(3, 3, 1, 0)</title>
<ellipse fill="blue" stroke="black" cx="270.8" cy="-810" rx="46.59" ry="18"/>
<text text-anchor="middle" x="270.8" y="-806.3" font-family="Times,serif" font-size="14.00" fill="white">(3, 3, 1)</text>
</g>
<!-- (2, 3, 0, 1) -->
<g id="node2" class="node">
<title>(2, 3, 0, 1)</title>
<ellipse fill="red" stroke="black" cx="46.8" cy="-738" rx="46.59" ry="18"/>
<text text-anchor="middle" x="46.8" y="-734.3" font-family="Times,serif" font-size="14.00">(2, 3, 0)</text>
</g>
<!-- (3, 3, 1, 0)&#45;&#45;(2, 3, 0, 1) -->
<g id="edge1" class="edge">
<title>(3, 3, 1, 0)&#45;&#45;(2, 3, 0, 1)</title>
<path fill="none" stroke="black" d="M235.3,-797.91C196.47,-785.77 134.14,-766.29 91.88,-753.09"/>
<polygon fill="black" stroke="black" points="92.71,-749.68 82.12,-750.04 90.62,-756.36 92.71,-749.68"/>
</g>
<!-- (3, 2, 0, 1) -->
<g id="node3" class="node">
<title>(3, 2, 0, 1)</title>
<ellipse fill="gray" stroke="black" cx="158.8" cy="-738" rx="46.59" ry="18"/>
<text text-anchor="middle" x="158.8" y="-734.3" font-family="Times,serif" font-size="14.00">(3, 2, 0)</text>
</g>
<!-- (3, 3, 1, 0)&#45;&#45;(3, 2, 0, 1) -->
<g id="edge2" class="edge">
<title>(3, 3, 1, 0)&#45;&#45;(3, 2, 0, 1)</title>
<path fill="none" stroke="black" d="M247.32,-794.33C231.04,-784.15 209.15,-770.47 191.21,-759.26"/>
<polygon fill="black" stroke="black" points="192.58,-755.99 182.24,-753.65 188.87,-761.92 192.58,-755.99"/>
</g>
<!-- (2, 2, 0, 1) -->
<g id="node4" class="node">
<title>(2, 2, 0, 1)</title>
<ellipse fill="yellow" stroke="black" cx="270.8" cy="-738" rx="46.59" ry="18"/>
<text text-anchor="middle" x="270.8" y="-734.3" font-family="Times,serif" font-size="14.00">(2, 2, 0)</text>
</g>
<!-- (3, 3, 1, 0)&#45;&#45;(2, 2, 0, 1) -->
<g id="edge3" class="edge">
<title>(3, 3, 1, 0)&#45;&#45;(2, 2, 0, 1)</title>
<path fill="none" stroke="black" d="M270.8,-791.7C270.8,-783.98 270.8,-774.71 270.8,-766.11"/>
<polygon fill="black" stroke="black" points="274.3,-766.1 270.8,-756.1 267.3,-766.1 274.3,-766.1"/>
</g>
<!-- (3, 1, 0, 1) -->
<g id="node5" class="node">
<title>(3, 1, 0, 1)</title>
<ellipse fill="gray" stroke="black" cx="382.8" cy="-738" rx="46.59" ry="18"/>
<text text-anchor="middle" x="382.8" y="-734.3" font-family="Times,serif" font-size="14.00">(3, 1, 0)</text>
</g>
<!-- (3, 3, 1, 0)&#45;&#45;(3, 1, 0, 1) -->
<g id="edge4" class="edge">
<title>(3, 3, 1, 0)&#45;&#45;(3, 1, 0, 1)</title>
<path fill="none" stroke="black" d="M294.27,-794.33C310.55,-784.15 332.44,-770.47 350.38,-759.26"/>
<polygon fill="black" stroke="black" points="352.72,-761.92 359.35,-753.65 349.01,-755.99 352.72,-761.92"/>
</g>
<!-- (1, 3, 0, 1) -->
<g id="node6" class="node">
<title>(1, 3, 0, 1)</title>
<ellipse fill="red" stroke="black" cx="494.8" cy="-738" rx="46.59" ry="18"/>
<text text-anchor="middle" x="494.8" y="-734.3" font-family="Times,serif" font-size="14.00">(1, 3, 0)</text>
</g>
<!-- (3, 3, 1, 0)&#45;&#45;(1, 3, 0, 1) -->
<g id="edge5" class="edge">
<title>(3, 3, 1, 0)&#45;&#45;(1, 3, 0, 1)</title>
<path fill="none" stroke="black" d="M306.29,-797.91C345.12,-785.77 407.45,-766.29 449.71,-753.09"/>
<polygon fill="black" stroke="black" points="450.97,-756.36 459.47,-750.04 448.88,-749.68 450.97,-756.36"/>
</g>
<!-- (3, 2, 1, 2) -->
<g id="node7" class="node">
<title>(3, 2, 1, 2)</title>
<ellipse fill="yellow" stroke="black" cx="214.8" cy="-666" rx="46.59" ry="18"/>
<text text-anchor="middle" x="214.8" y="-662.3" font-family="Times,serif" font-size="14.00">(3, 2, 1)</text>
</g>
<!-- (2, 2, 0, 1)&#45;&#45;(3, 2, 1, 2) -->
<g id="edge6" class="edge">
<title>(2, 2, 0, 1)&#45;&#45;(3, 2, 1, 2)</title>
<path fill="none" stroke="black" d="M257.52,-720.41C250.62,-711.78 242.05,-701.06 234.39,-691.5"/>
<polygon fill="black" stroke="black" points="236.95,-689.09 227.97,-683.47 231.49,-693.47 236.95,-689.09"/>
</g>
<!-- (2, 3, 1, 2) -->
<g id="node8" class="node">
<title>(2, 3, 1, 2)</title>
<ellipse fill="red" stroke="black" cx="326.8" cy="-666" rx="46.59" ry="18"/>
<text text-anchor="middle" x="326.8" y="-662.3" font-family="Times,serif" font-size="14.00">(2, 3, 1)</text>
</g>
<!-- (2, 2, 0, 1)&#45;&#45;(2, 3, 1, 2) -->
<g id="edge7" class="edge">
<title>(2, 2, 0, 1)&#45;&#45;(2, 3, 1, 2)</title>
<path fill="none" stroke="black" d="M284.07,-720.41C290.97,-711.78 299.55,-701.06 307.2,-691.5"/>
<polygon fill="black" stroke="black" points="310.11,-693.47 313.62,-683.47 304.64,-689.09 310.11,-693.47"/>
</g>
<!-- (2, 1, 0, 3) -->
<g id="node9" class="node">
<title>(2, 1, 0, 3)</title>
<ellipse fill="red" stroke="black" cx="102.8" cy="-594" rx="46.59" ry="18"/>
<text text-anchor="middle" x="102.8" y="-590.3" font-family="Times,serif" font-size="14.00">(2, 1, 0)</text>
</g>
<!-- (3, 2, 1, 2)&#45;&#45;(2, 1, 0, 3) -->
<g id="edge8" class="edge">
<title>(3, 2, 1, 2)&#45;&#45;(2, 1, 0, 3)</title>
<path fill="none" stroke="black" d="M191.32,-650.33C175.04,-640.15 153.15,-626.47 135.21,-615.26"/>
<polygon fill="black" stroke="black" points="136.58,-611.99 126.24,-609.65 132.87,-617.92 136.58,-611.99"/>
</g>
<!-- (3, 0, 0, 3) -->
<g id="node10" class="node">
<title>(3, 0, 0, 3)</title>
<ellipse fill="yellow" stroke="black" cx="214.8" cy="-594" rx="46.59" ry="18"/>
<text text-anchor="middle" x="214.8" y="-590.3" font-family="Times,serif" font-size="14.00">(3, 0, 0)</text>
</g>
<!-- (3, 2, 1, 2)&#45;&#45;(3, 0, 0, 3) -->
<g id="edge9" class="edge">
<title>(3, 2, 1, 2)&#45;&#45;(3, 0, 0, 3)</title>
<path fill="none" stroke="black" d="M214.8,-647.7C214.8,-639.98 214.8,-630.71 214.8,-622.11"/>
<polygon fill="black" stroke="black" points="218.3,-622.1 214.8,-612.1 211.3,-622.1 218.3,-622.1"/>
</g>
<!-- (1, 2, 0, 3) -->
<g id="node11" class="node">
<title>(1, 2, 0, 3)</title>
<ellipse fill="red" stroke="black" cx="326.8" cy="-594" rx="46.59" ry="18"/>
<text text-anchor="middle" x="326.8" y="-590.3" font-family="Times,serif" font-size="14.00">(1, 2, 0)</text>
</g>
<!-- (3, 2, 1, 2)&#45;&#45;(1, 2, 0, 3) -->
<g id="edge10" class="edge">
<title>(3, 2, 1, 2)&#45;&#45;(1, 2, 0, 3)</title>
<path fill="none" stroke="black" d="M238.27,-650.33C254.55,-640.15 276.44,-626.47 294.38,-615.26"/>
<polygon fill="black" stroke="black" points="296.72,-617.92 303.35,-609.65 293.01,-611.99 296.72,-617.92"/>
</g>
<!-- (3, 1, 1, 4) -->
<g id="node12" class="node">
<title>(3, 1, 1, 4)</title>
<ellipse fill="yellow" stroke="black" cx="214.8" cy="-522" rx="46.59" ry="18"/>
<text text-anchor="middle" x="214.8" y="-518.3" font-family="Times,serif" font-size="14.00">(3, 1, 1)</text>
</g>
<!-- (3, 0, 0, 3)&#45;&#45;(3, 1, 1, 4) -->
<g id="edge11" class="edge">
<title>(3, 0, 0, 3)&#45;&#45;(3, 1, 1, 4)</title>
<path fill="none" stroke="black" d="M214.8,-575.7C214.8,-567.98 214.8,-558.71 214.8,-550.11"/>
<polygon fill="black" stroke="black" points="218.3,-550.1 214.8,-540.1 211.3,-550.1 218.3,-550.1"/>
</g>
<!-- (2, 0, 0, 5) -->
<g id="node13" class="node">
<title>(2, 0, 0, 5)</title>
<ellipse fill="red" stroke="black" cx="158.8" cy="-450" rx="46.59" ry="18"/>
<text text-anchor="middle" x="158.8" y="-446.3" font-family="Times,serif" font-size="14.00">(2, 0, 0)</text>
</g>
<!-- (3, 1, 1, 4)&#45;&#45;(2, 0, 0, 5) -->
<g id="edge12" class="edge">
<title>(3, 1, 1, 4)&#45;&#45;(2, 0, 0, 5)</title>
<path fill="none" stroke="black" d="M201.52,-504.41C194.62,-495.78 186.05,-485.06 178.39,-475.5"/>
<polygon fill="black" stroke="black" points="180.95,-473.09 171.97,-467.47 175.49,-477.47 180.95,-473.09"/>
</g>
<!-- (1, 1, 0, 5) -->
<g id="node14" class="node">
<title>(1, 1, 0, 5)</title>
<ellipse fill="yellow" stroke="black" cx="270.8" cy="-450" rx="46.59" ry="18"/>
<text text-anchor="middle" x="270.8" y="-446.3" font-family="Times,serif" font-size="14.00">(1, 1, 0)</text>
</g>
<!-- (3, 1, 1, 4)&#45;&#45;(1, 1, 0, 5) -->
<g id="edge13" class="edge">
<title>(3, 1, 1, 4)&#45;&#45;(1, 1, 0, 5)</title>
<path fill="none" stroke="black" d="M228.07,-504.41C234.97,-495.78 243.55,-485.06 251.2,-475.5"/>
<polygon fill="black" stroke="black" points="254.11,-477.47 257.62,-467.47 248.64,-473.09 254.11,-477.47"/>
</g>
<!-- (2, 1, 1, 6) -->
<g id="node15" class="node">
<title>(2, 1, 1, 6)</title>
<ellipse fill="red" stroke="black" cx="102.8" cy="-378" rx="46.59" ry="18"/>
<text text-anchor="middle" x="102.8" y="-374.3" font-family="Times,serif" font-size="14.00">(2, 1, 1)</text>
</g>
<!-- (1, 1, 0, 5)&#45;&#45;(2, 1, 1, 6) -->
<g id="edge14" class="edge">
<title>(1, 1, 0, 5)&#45;&#45;(2, 1, 1, 6)</title>
<path fill="none" stroke="black" d="M239.98,-436.16C212.63,-424.76 172.5,-408.04 142.7,-395.63"/>
<polygon fill="black" stroke="black" points="143.99,-392.37 133.41,-391.76 141.3,-398.83 143.99,-392.37"/>
</g>
<!-- (1, 2, 1, 6) -->
<g id="node16" class="node">
<title>(1, 2, 1, 6)</title>
<ellipse fill="red" stroke="black" cx="214.8" cy="-378" rx="46.59" ry="18"/>
<text text-anchor="middle" x="214.8" y="-374.3" font-family="Times,serif" font-size="14.00">(1, 2, 1)</text>
</g>
<!-- (1, 1, 0, 5)&#45;&#45;(1, 2, 1, 6) -->
<g id="edge15" class="edge">
<title>(1, 1, 0, 5)&#45;&#45;(1, 2, 1, 6)</title>
<path fill="none" stroke="black" d="M257.52,-432.41C250.62,-423.78 242.05,-413.06 234.39,-403.5"/>
<polygon fill="black" stroke="black" points="236.95,-401.09 227.97,-395.47 231.49,-405.47 236.95,-401.09"/>
</g>
<!-- (2, 2, 1, 6) -->
<g id="node17" class="node">
<title>(2, 2, 1, 6)</title>
<ellipse fill="yellow" stroke="black" cx="326.8" cy="-378" rx="46.59" ry="18"/>
<text text-anchor="middle" x="326.8" y="-374.3" font-family="Times,serif" font-size="14.00">(2, 2, 1)</text>
</g>
<!-- (1, 1, 0, 5)&#45;&#45;(2, 2, 1, 6) -->
<g id="edge16" class="edge">
<title>(1, 1, 0, 5)&#45;&#45;(2, 2, 1, 6)</title>
<path fill="none" stroke="black" d="M284.07,-432.41C290.97,-423.78 299.55,-413.06 307.2,-403.5"/>
<polygon fill="black" stroke="black" points="310.11,-405.47 313.62,-395.47 304.64,-401.09 310.11,-405.47"/>
</g>
<!-- (1, 3, 1, 6) -->
<g id="node18" class="node">
<title>(1, 3, 1, 6)</title>
<ellipse fill="red" stroke="black" cx="438.8" cy="-378" rx="46.59" ry="18"/>
<text text-anchor="middle" x="438.8" y="-374.3" font-family="Times,serif" font-size="14.00">(1, 3, 1)</text>
</g>
<!-- (1, 1, 0, 5)&#45;&#45;(1, 3, 1, 6) -->
<g id="edge17" class="edge">
<title>(1, 1, 0, 5)&#45;&#45;(1, 3, 1, 6)</title>
<path fill="none" stroke="black" d="M301.61,-436.16C328.96,-424.76 369.1,-408.04 398.89,-395.63"/>
<polygon fill="black" stroke="black" points="400.29,-398.83 408.18,-391.76 397.6,-392.37 400.29,-398.83"/>
</g>
<!-- (0, 2, 0, 7) -->
<g id="node19" class="node">
<title>(0, 2, 0, 7)</title>
<ellipse fill="yellow" stroke="black" cx="326.8" cy="-306" rx="46.59" ry="18"/>
<text text-anchor="middle" x="326.8" y="-302.3" font-family="Times,serif" font-size="14.00">(0, 2, 0)</text>
</g>
<!-- (2, 2, 1, 6)&#45;&#45;(0, 2, 0, 7) -->
<g id="edge18" class="edge">
<title>(2, 2, 1, 6)&#45;&#45;(0, 2, 0, 7)</title>
<path fill="none" stroke="black" d="M326.8,-359.7C326.8,-351.98 326.8,-342.71 326.8,-334.11"/>
<polygon fill="black" stroke="black" points="330.3,-334.1 326.8,-324.1 323.3,-334.1 330.3,-334.1"/>
</g>
<!-- (0, 3, 1, 8) -->
<g id="node20" class="node">
<title>(0, 3, 1, 8)</title>
<ellipse fill="yellow" stroke="black" cx="326.8" cy="-234" rx="46.59" ry="18"/>
<text text-anchor="middle" x="326.8" y="-230.3" font-family="Times,serif" font-size="14.00">(0, 3, 1)</text>
</g>
<!-- (0, 2, 0, 7)&#45;&#45;(0, 3, 1, 8) -->
<g id="edge19" class="edge">
<title>(0, 2, 0, 7)&#45;&#45;(0, 3, 1, 8)</title>
<path fill="none" stroke="black" d="M326.8,-287.7C326.8,-279.98 326.8,-270.71 326.8,-262.11"/>
<polygon fill="black" stroke="black" points="330.3,-262.1 326.8,-252.1 323.3,-262.1 330.3,-262.1"/>
</g>
<!-- (0, 1, 0, 9) -->
<g id="node21" class="node">
<title>(0, 1, 0, 9)</title>
<ellipse fill="yellow" stroke="black" cx="326.8" cy="-162" rx="46.59" ry="18"/>
<text text-anchor="middle" x="326.8" y="-158.3" font-family="Times,serif" font-size="14.00">(0, 1, 0)</text>
</g>
<!-- (0, 3, 1, 8)&#45;&#45;(0, 1, 0, 9) -->
<g id="edge20" class="edge">
<title>(0, 3, 1, 8)&#45;&#45;(0, 1, 0, 9)</title>
<path fill="none" stroke="black" d="M326.8,-215.7C326.8,-207.98 326.8,-198.71 326.8,-190.11"/>
<polygon fill="black" stroke="black" points="330.3,-190.1 326.8,-180.1 323.3,-190.1 330.3,-190.1"/>
</g>
<!-- (1, 1, 1, 10) -->
<g id="node22" class="node">
<title>(1, 1, 1, 10)</title>
<ellipse fill="yellow" stroke="black" cx="270.8" cy="-90" rx="46.59" ry="18"/>
<text text-anchor="middle" x="270.8" y="-86.3" font-family="Times,serif" font-size="14.00">(1, 1, 1)</text>
</g>
<!-- (0, 1, 0, 9)&#45;&#45;(1, 1, 1, 10) -->
<g id="edge21" class="edge">
<title>(0, 1, 0, 9)&#45;&#45;(1, 1, 1, 10)</title>
<path fill="none" stroke="black" d="M313.52,-144.41C306.62,-135.78 298.05,-125.06 290.39,-115.5"/>
<polygon fill="black" stroke="black" points="292.95,-113.09 283.97,-107.47 287.49,-117.47 292.95,-113.09"/>
</g>
<!-- (0, 2, 1, 10) -->
<g id="node23" class="node">
<title>(0, 2, 1, 10)</title>
<ellipse fill="gray" stroke="black" cx="382.8" cy="-90" rx="46.59" ry="18"/>
<text text-anchor="middle" x="382.8" y="-86.3" font-family="Times,serif" font-size="14.00">(0, 2, 1)</text>
</g>
<!-- (0, 1, 0, 9)&#45;&#45;(0, 2, 1, 10) -->
<g id="edge22" class="edge">
<title>(0, 1, 0, 9)&#45;&#45;(0, 2, 1, 10)</title>
<path fill="none" stroke="black" d="M340.07,-144.41C346.97,-135.78 355.55,-125.06 363.2,-115.5"/>
<polygon fill="black" stroke="black" points="366.11,-117.47 369.62,-107.47 360.64,-113.09 366.11,-117.47"/>
</g>
<!-- (1, 0, 0, 11) -->
<g id="node24" class="node">
<title>(1, 0, 0, 11)</title>
<ellipse fill="red" stroke="black" cx="214.8" cy="-18" rx="46.59" ry="18"/>
<text text-anchor="middle" x="214.8" y="-14.3" font-family="Times,serif" font-size="14.00">(1, 0, 0)</text>
</g>
<!-- (1, 1, 1, 10)&#45;&#45;(1, 0, 0, 11) -->
<g id="edge23" class="edge">
<title>(1, 1, 1, 10)&#45;&#45;(1, 0, 0, 11)</title>
<path fill="none" stroke="black" d="M257.52,-72.41C250.62,-63.78 242.05,-53.06 234.39,-43.5"/>
<polygon fill="black" stroke="black" points="236.95,-41.09 227.97,-35.47 231.49,-45.47 236.95,-41.09"/>
</g>
<!-- (0, 0, 0, 11) -->
<g id="node25" class="node">
<title>(0, 0, 0, 11)</title>
<ellipse fill="green" stroke="black" cx="326.8" cy="-18" rx="46.59" ry="18"/>
<text text-anchor="middle" x="326.8" y="-14.3" font-family="Times,serif" font-size="14.00">(0, 0, 0)</text>
</g>
<!-- (1, 1, 1, 10)&#45;&#45;(0, 0, 0, 11) -->
<g id="edge24" class="edge">
<title>(1, 1, 1, 10)&#45;&#45;(0, 0, 0, 11)</title>
<path fill="none" stroke="black" d="M284.07,-72.41C290.97,-63.78 299.55,-53.06 307.2,-43.5"/>
<polygon fill="black" stroke="black" points="310.11,-45.47 313.62,-35.47 304.64,-41.09 310.11,-45.47"/>
</g>
</g>
</svg>
