<?xml version="1.0" encoding="UTF-8" standalone="no"?>
<!DOCTYPE svg PUBLIC "-//W3C//DTD SVG 1.1//EN"
 "http://www.w3.org/Graphics/SVG/1.1/DTD/svg11.dtd">
<!-- Generated by graphviz version 2.43.0 (0)
 -->
<!-- Title: G Pages: 1 -->
<svg width="718pt" height="836pt"
 viewBox="0.00 0.00 717.59 836.00" xmlns="http://www.w3.org/2000/svg" xmlns:xlink="http://www.w3.org/1999/xlink">
<g id="graph0" class="graph" transform="scale(1 1) rotate(0) translate(4 832)">
<title>G</title>
<polygon fill="#ffffff" stroke="transparent" points="-4,4 -4,-832 713.59,-832 713.59,4 -4,4"/>
<!-- (3, 3, 1, 0) -->
<g id="node1" class="node">
<title>(3, 3, 1, 0)</title>
<ellipse fill="blue" stroke="black" cx="158.8" cy="-810" rx="46.59" ry="18"/>
<text text-anchor="middle" x="158.8" y="-806.3" font-family="Times,serif" font-size="14.00">(3, 3, 1)</text>
</g>
<!-- (2, 3, 0, 1) -->
<g id="node2" class="node">
<title>(2, 3, 0, 1)</title>
<ellipse fill="red" stroke="black" cx="46.8" cy="-738" rx="46.59" ry="18"/>
<text text-anchor="middle" x="46.8" y="-734.3" font-family="Times,serif" font-size="14.00">(2, 3, 0)</text>
</g>
<!-- (3, 3, 1, 0)&#45;&#45;(2, 3, 0, 1) -->
<g id="edge1" class="edge">
<title>(3, 3, 1, 0)&#45;&#45;(2, 3, 0, 1)</title>
<path fill="none" stroke="black" d="M135.32,-794.33C119.04,-784.15 97.15,-770.47 79.21,-759.26"/>
<polygon fill="black" stroke="black" points="80.58,-755.99 70.24,-753.65 76.87,-761.92 80.58,-755.99"/>
</g>
<!-- (3, 2, 0, 1) -->
<g id="node3" class="node">
<title>(3, 2, 0, 1)</title>
<ellipse fill="gray" stroke="black" cx="158.8" cy="-738" rx="46.59" ry="18"/>
<text text-anchor="middle" x="158.8" y="-734.3" font-family="Times,serif" font-size="14.00">(3, 2, 0)</text>
</g>
<!-- (3, 3, 1, 0)&#45;&#45;(3, 2, 0, 1) -->
<g id="edge2" class="edge">
<title>(3, 3, 1, 0)&#45;&#45;(3, 2, 0, 1)</title>
<path fill="none" stroke="black" d="M158.8,-791.7C158.8,-783.98 158.8,-774.71 158.8,-766.11"/>
<polygon fill="black" stroke="black" points="162.3,-766.1 158.8,-756.1 155.3,-766.1 162.3,-766.1"/>
</g>
<!-- (2, 2, 0, 1) -->
<g id="node4" class="node">
<title>(2, 2, 0, 1)</title>
<ellipse fill="yellow" stroke="black" cx="270.8" cy="-738" rx="46.59" ry="18"/>
<text text-anchor="middle" x="270.8" y="-734.3" font-family="Times,serif" font-size="14.00">(2, 2, 0)</text>
</g>
<!-- (3, 3, 1, 0)&#45;&#45;(2, 2, 0, 1) -->
<g id="edge3" class="edge">
<title>(3, 3, 1, 0)&#45;&#45;(2, 2, 0, 1)</title>
<path fill="none" stroke="black" d="M182.27,-794.33C198.55,-784.15 220.44,-770.47 238.38,-759.26"/>
<polygon fill="black" stroke="black" points="240.72,-761.92 247.35,-753.65 237.01,-755.99 240.72,-761.92"/>
</g>
<!-- (3, 2, 1, 2) -->
<g id="node5" class="node">
<title>(3, 2, 1, 2)</title>
<ellipse fill="yellow" stroke="black" cx="270.8" cy="-666" rx="46.59" ry="18"/>
<text text-anchor="middle" x="270.8" y="-662.3" font-family="Times,serif" font-size="14.00">(3, 2, 1)</text>
</g>
<!-- (2, 2, 0, 1)&#45;&#45;(3, 2, 1, 2) -->
<g id="edge4" class="edge">
<title>(2, 2, 0, 1)&#45;&#45;(3, 2, 1, 2)</title>
<path fill="none" stroke="black" d="M270.8,-719.7C270.8,-711.98 270.8,-702.71 270.8,-694.11"/>
<polygon fill="black" stroke="black" points="274.3,-694.1 270.8,-684.1 267.3,-694.1 274.3,-694.1"/>
</g>
<!-- (3, 1, 0, 3) -->
<g id="node6" class="node">
<title>(3, 1, 0, 3)</title>
<ellipse fill="gray" stroke="black" cx="158.8" cy="-594" rx="46.59" ry="18"/>
<text text-anchor="middle" x="158.8" y="-590.3" font-family="Times,serif" font-size="14.00">(3, 1, 0)</text>
</g>
<!-- (3, 2, 1, 2)&#45;&#45;(3, 1, 0, 3) -->
<g id="edge5" class="edge">
<title>(3, 2, 1, 2)&#45;&#45;(3, 1, 0, 3)</title>
<path fill="none" stroke="black" d="M247.32,-650.33C231.04,-640.15 209.15,-626.47 191.21,-615.26"/>
<polygon fill="black" stroke="black" points="192.58,-611.99 182.24,-609.65 188.87,-617.92 192.58,-611.99"/>
</g>
<!-- (2, 1, 0, 3) -->
<g id="node7" class="node">
<title>(2, 1, 0, 3)</title>
<ellipse fill="red" stroke="black" cx="270.8" cy="-594" rx="46.59" ry="18"/>
<text text-anchor="middle" x="270.8" y="-590.3" font-family="Times,serif" font-size="14.00">(2, 1, 0)</text>
</g>
<!-- (3, 2, 1, 2)&#45;&#45;(2, 1, 0, 3) -->
<g id="edge6" class="edge">
<title>(3, 2, 1, 2)&#45;&#45;(2, 1, 0, 3)</title>
<path fill="none" stroke="black" d="M270.8,-647.7C270.8,-639.98 270.8,-630.71 270.8,-622.11"/>
<polygon fill="black" stroke="black" points="274.3,-622.1 270.8,-612.1 267.3,-622.1 274.3,-622.1"/>
</g>
<!-- (3, 0, 0, 3) -->
<g id="node8" class="node">
<title>(3, 0, 0, 3)</title>
<ellipse fill="yellow" stroke="black" cx="382.8" cy="-594" rx="46.59" ry="18"/>
<text text-anchor="middle" x="382.8" y="-590.3" font-family="Times,serif" font-size="14.00">(3, 0, 0)</text>
</g>
<!-- (3, 2, 1, 2)&#45;&#45;(3, 0, 0, 3) -->
<g id="edge7" class="edge">
<title>(3, 2, 1, 2)&#45;&#45;(3, 0, 0, 3)</title>
<path fill="none" stroke="black" d="M294.27,-650.33C310.55,-640.15 332.44,-626.47 350.38,-615.26"/>
<polygon fill="black" stroke="black" points="352.72,-617.92 359.35,-609.65 349.01,-611.99 352.72,-617.92"/>
</g>
<!-- (3, 1, 1, 4) -->
<g id="node9" class="node">
<title>(3, 1, 1, 4)</title>
<ellipse fill="yellow" stroke="black" cx="382.8" cy="-522" rx="46.59" ry="18"/>
<text text-anchor="middle" x="382.8" y="-518.3" font-family="Times,serif" font-size="14.00">(3, 1, 1)</text>
</g>
<!-- (3, 0, 0, 3)&#45;&#45;(3, 1, 1, 4) -->
<g id="edge8" class="edge">
<title>(3, 0, 0, 3)&#45;&#45;(3, 1, 1, 4)</title>
<path fill="none" stroke="black" d="M382.8,-575.7C382.8,-567.98 382.8,-558.71 382.8,-550.11"/>
<polygon fill="black" stroke="black" points="386.3,-550.1 382.8,-540.1 379.3,-550.1 386.3,-550.1"/>
</g>
<!-- (2, 0, 0, 5) -->
<g id="node10" class="node">
<title>(2, 0, 0, 5)</title>
<ellipse fill="red" stroke="black" cx="326.8" cy="-450" rx="46.59" ry="18"/>
<text text-anchor="middle" x="326.8" y="-446.3" font-family="Times,serif" font-size="14.00">(2, 0, 0)</text>
</g>
<!-- (3, 1, 1, 4)&#45;&#45;(2, 0, 0, 5) -->
<g id="edge9" class="edge">
<title>(3, 1, 1, 4)&#45;&#45;(2, 0, 0, 5)</title>
<path fill="none" stroke="black" d="M369.52,-504.41C362.62,-495.78 354.05,-485.06 346.39,-475.5"/>
<polygon fill="black" stroke="black" points="348.95,-473.09 339.97,-467.47 343.49,-477.47 348.95,-473.09"/>
</g>
<!-- (1, 1, 0, 5) -->
<g id="node11" class="node">
<title>(1, 1, 0, 5)</title>
<ellipse fill="yellow" stroke="black" cx="438.8" cy="-450" rx="46.59" ry="18"/>
<text text-anchor="middle" x="438.8" y="-446.3" font-family="Times,serif" font-size="14.00">(1, 1, 0)</text>
</g>
<!-- (3, 1, 1, 4)&#45;&#45;(1, 1, 0, 5) -->
<g id="edge10" class="edge">
<title>(3, 1, 1, 4)&#45;&#45;(1, 1, 0, 5)</title>
<path fill="none" stroke="black" d="M396.07,-504.41C402.97,-495.78 411.55,-485.06 419.2,-475.5"/>
<polygon fill="black" stroke="black" points="422.11,-477.47 425.62,-467.47 416.64,-473.09 422.11,-477.47"/>
</g>
<!-- (2, 1, 1, 6) -->
<g id="node12" class="node">
<title>(2, 1, 1, 6)</title>
<ellipse fill="red" stroke="black" cx="326.8" cy="-378" rx="46.59" ry="18"/>
<text text-anchor="middle" x="326.8" y="-374.3" font-family="Times,serif" font-size="14.00">(2, 1, 1)</text>
</g>
<!-- (1, 1, 0, 5)&#45;&#45;(2, 1, 1, 6) -->
<g id="edge11" class="edge">
<title>(1, 1, 0, 5)&#45;&#45;(2, 1, 1, 6)</title>
<path fill="none" stroke="black" d="M415.32,-434.33C399.04,-424.15 377.15,-410.47 359.21,-399.26"/>
<polygon fill="black" stroke="black" points="360.58,-395.99 350.24,-393.65 356.87,-401.92 360.58,-395.99"/>
</g>
<!-- (1, 2, 1, 6) -->
<g id="node13" class="node">
<title>(1, 2, 1, 6)</title>
<ellipse fill="red" stroke="black" cx="438.8" cy="-378" rx="46.59" ry="18"/>
<text text-anchor="middle" x="438.8" y="-374.3" font-family="Times,serif" font-size="14.00">(1, 2, 1)</text>
</g>
<!-- (1, 1, 0, 5)&#45;&#45;(1, 2, 1, 6) -->
<g id="edge12" class="edge">
<title>(1, 1, 0, 5)&#45;&#45;(1, 2, 1, 6)</title>
<path fill="none" stroke="black" d="M438.8,-431.7C438.8,-423.98 438.8,-414.71 438.8,-406.11"/>
<polygon fill="black" stroke="black" points="442.3,-406.1 438.8,-396.1 435.3,-406.1 442.3,-406.1"/>
</g>
<!-- (2, 2, 1, 6) -->
<g id="node14" class="node">
<title>(2, 2, 1, 6)</title>
<ellipse fill="yellow" stroke="black" cx="550.8" cy="-378" rx="46.59" ry="18"/>
<text text-anchor="middle" x="550.8" y="-374.3" font-family="Times,serif" font-size="14.00">(2, 2, 1)</text>
</g>
<!-- (1, 1, 0, 5)&#45;&#45;(2, 2, 1, 6) -->
<g id="edge13" class="edge">
<title>(1, 1, 0, 5)&#45;&#45;(2, 2, 1, 6)</title>
<path fill="none" stroke="black" d="M462.27,-434.33C478.55,-424.15 500.44,-410.47 518.38,-399.26"/>
<polygon fill="black" stroke="black" points="520.72,-401.92 527.35,-393.65 517.01,-395.99 520.72,-401.92"/>
</g>
<!-- (1, 2, 0, 7) -->
<g id="node15" class="node">
<title>(1, 2, 0, 7)</title>
<ellipse fill="red" stroke="black" cx="494.8" cy="-306" rx="46.59" ry="18"/>
<text text-anchor="middle" x="494.8" y="-302.3" font-family="Times,serif" font-size="14.00">(1, 2, 0)</text>
</g>
<!-- (2, 2, 1, 6)&#45;&#45;(1, 2, 0, 7) -->
<g id="edge14" class="edge">
<title>(2, 2, 1, 6)&#45;&#45;(1, 2, 0, 7)</title>
<path fill="none" stroke="black" d="M537.52,-360.41C530.62,-351.78 522.05,-341.06 514.39,-331.5"/>
<polygon fill="black" stroke="black" points="516.95,-329.09 507.97,-323.47 511.49,-333.47 516.95,-329.09"/>
</g>
<!-- (0, 2, 0, 7) -->
<g id="node16" class="node">
<title>(0, 2, 0, 7)</title>
<ellipse fill="yellow" stroke="black" cx="606.8" cy="-306" rx="46.59" ry="18"/>
<text text-anchor="middle" x="606.8" y="-302.3" font-family="Times,serif" font-size="14.00">(0, 2, 0)</text>
</g>
<!-- (2, 2, 1, 6)&#45;&#45;(0, 2, 0, 7) -->
<g id="edge15" class="edge">
<title>(2, 2, 1, 6)&#45;&#45;(0, 2, 0, 7)</title>
<path fill="none" stroke="black" d="M564.07,-360.41C570.97,-351.78 579.55,-341.06 587.2,-331.5"/>
<polygon fill="black" stroke="black" points="590.11,-333.47 593.62,-323.47 584.64,-329.09 590.11,-333.47"/>
</g>
<!-- (0, 3, 1, 8) -->
<g id="node17" class="node">
<title>(0, 3, 1, 8)</title>
<ellipse fill="yellow" stroke="black" cx="606.8" cy="-234" rx="46.59" ry="18"/>
<text text-anchor="middle" x="606.8" y="-230.3" font-family="Times,serif" font-size="14.00">(0, 3, 1)</text>
</g>
<!-- (0, 2, 0, 7)&#45;&#45;(0, 3, 1, 8) -->
<g id="edge16" class="edge">
<title>(0, 2, 0, 7)&#45;&#45;(0, 3, 1, 8)</title>
<path fill="none" stroke="black" d="M606.8,-287.7C606.8,-279.98 606.8,-270.71 606.8,-262.11"/>
<polygon fill="black" stroke="black" points="610.3,-262.1 606.8,-252.1 603.3,-262.1 610.3,-262.1"/>
</g>
<!-- (0, 1, 0, 9) -->
<g id="node18" class="node">
<title>(0, 1, 0, 9)</title>
<ellipse fill="yellow" stroke="black" cx="606.8" cy="-162" rx="46.59" ry="18"/>
<text text-anchor="middle" x="606.8" y="-158.3" font-family="Times,serif" font-size="14.00">(0, 1, 0)</text>
</g>
<!-- (0, 3, 1, 8)&#45;&#45;(0, 1, 0, 9) -->
<g id="edge17" class="edge">
<title>(0, 3, 1, 8)&#45;&#45;(0, 1, 0, 9)</title>
<path fill="none" stroke="black" d="M606.8,-215.7C606.8,-207.98 606.8,-198.71 606.8,-190.11"/>
<polygon fill="black" stroke="black" points="610.3,-190.1 606.8,-180.1 603.3,-190.1 610.3,-190.1"/>
</g>
<!-- (1, 1, 1, 10) -->
<g id="node19" class="node">
<title>(1, 1, 1, 10)</title>
<ellipse fill="yellow" stroke="black" cx="606.8" cy="-90" rx="46.59" ry="18"/>
<text text-anchor="middle" x="606.8" y="-86.3" font-family="Times,serif" font-size="14.00">(1, 1, 1)</text>
</g>
<!-- (0, 1, 0, 9)&#45;&#45;(1, 1, 1, 10) -->
<g id="edge18" class="edge">
<title>(0, 1, 0, 9)&#45;&#45;(1, 1, 1, 10)</title>
<path fill="none" stroke="black" d="M606.8,-143.7C606.8,-135.98 606.8,-126.71 606.8,-118.11"/>
<polygon fill="black" stroke="black" points="610.3,-118.1 606.8,-108.1 603.3,-118.1 610.3,-118.1"/>
</g>
<!-- (1, 0, 0, 11) -->
<g id="node20" class="node">
<title>(1, 0, 0, 11)</title>
<ellipse fill="red" stroke="black" cx="550.8" cy="-18" rx="46.59" ry="18"/>
<text text-anchor="middle" x="550.8" y="-14.3" font-family="Times,serif" font-size="14.00">(1, 0, 0)</text>
</g>
<!-- (1, 1, 1, 10)&#45;&#45;(1, 0, 0, 11) -->
<g id="edge19" class="edge">
<title>(1, 1, 1, 10)&#45;&#45;(1, 0, 0, 11)</title>
<path fill="none" stroke="black" d="M593.52,-72.41C586.62,-63.78 578.05,-53.06 570.39,-43.5"/>
<polygon fill="black" stroke="black" points="572.95,-41.09 563.97,-35.47 567.49,-45.47 572.95,-41.09"/>
</g>
<!-- (0, 0, 0, 11) -->
<g id="node21" class="node">
<title>(0, 0, 0, 11)</title>
<ellipse fill="green" stroke="black" cx="662.8" cy="-18" rx="46.59" ry="18"/>
<text text-anchor="middle" x="662.8" y="-14.3" font-family="Times,serif" font-size="14.00">(0, 0, 0)</text>
</g>
<!-- (1, 1, 1, 10)&#45;&#45;(0, 0, 0, 11) -->
<g id="edge20" class="edge">
<title>(1, 1, 1, 10)&#45;&#45;(0, 0, 0, 11)</title>
<path fill="none" stroke="black" d="M620.07,-72.41C626.97,-63.78 635.55,-53.06 643.2,-43.5"/>
<polygon fill="black" stroke="black" points="646.11,-45.47 649.62,-35.47 640.64,-41.09 646.11,-45.47"/>
</g>
</g>
</svg>
